<svg width="24" height="24" viewBox="0 0 24 24" fill="none" xmlns="http://www.w3.org/2000/svg">
<path fill-rule="evenodd" clip-rule="evenodd" d="M9 2.75C8.58579 2.75 8.25 3.08579 8.25 3.5C8.25 3.91421 8.58579 4.25 9 4.25H15C15.4142 4.25 15.75 3.91421 15.75 3.5C15.75 3.08579 15.4142 2.75 15 2.75H9ZM6.75 3.5C6.75 2.25736 7.75736 1.25 9 1.25H15C16.2426 1.25 17.25 2.25736 17.25 3.5V4H18C19.5188 4 20.75 5.23122 20.75 6.75V19.25C20.75 20.7688 19.5188 22 18 22H6C4.48122 22 3.25 20.7688 3.25 19.25V6.75C3.25 5.23122 4.48122 4 6 4H6.75V3.5ZM6.75 5.5H6C5.30964 5.5 4.75 6.05964 4.75 6.75V19.25C4.75 19.9404 5.30964 20.5 6 20.5H18C18.6904 20.5 19.25 19.9404 19.25 19.25V6.75C19.25 6.05964 18.6904 5.5 18 5.5H17.25V6C17.25 6.41421 16.9142 6.75 16.5 6.75H7.5C7.08579 6.75 6.75 6.41421 6.75 6V5.5ZM8.5 10C8.08579 10 7.75 10.3358 7.75 10.75C7.75 11.1642 8.08579 11.5 8.5 11.5H15.5C15.9142 11.5 16.25 11.1642 16.25 10.75C16.25 10.3358 15.9142 10 15.5 10H8.5ZM7.75 14.75C7.75 14.3358 8.08579 14 8.5 14H15.5C15.9142 14 16.25 14.3358 16.25 14.75C16.25 15.1642 15.9142 15.5 15.5 15.5H8.5C8.08579 15.5 7.75 15.1642 7.75 14.75ZM8.5 18C8.08579 18 7.75 18.3358 7.75 18.75C7.75 19.1642 8.08579 19.5 8.5 19.5H12.5C12.9142 19.5 13.25 19.1642 13.25 18.75C13.25 18.3358 12.9142 18 12.5 18H8.5Z" fill="currentColor"/>
</svg>
