<svg width="24" height="24" viewBox="0 0 24 24" fill="none" xmlns="http://www.w3.org/2000/svg">
<path fill-rule="evenodd" clip-rule="evenodd" d="M12 3.25C11.5858 3.25 11.25 3.58579 11.25 4V11.1893L9.53033 9.46967C9.23744 9.17678 8.76256 9.17678 8.46967 9.46967C8.17678 9.76256 8.17678 10.2374 8.46967 10.5303L11.4697 13.5303C11.7626 13.8232 12.2374 13.8232 12.5303 13.5303L15.5303 10.5303C15.8232 10.2374 15.8232 9.76256 15.5303 9.46967C15.2374 9.17678 14.7626 9.17678 14.4697 9.46967L12.75 11.1893V4C12.75 3.58579 12.4142 3.25 12 3.25ZM6.5 11.25C6.91421 11.25 7.25 11.5858 7.25 12C7.25 12.6904 6.69036 13.25 6 13.25C5.30964 13.25 4.75 13.8096 4.75 14.5V19C4.75 19.6904 5.30964 20.25 6 20.25H18C18.6904 20.25 19.25 19.6904 19.25 19V14.5C19.25 13.8096 18.6904 13.25 18 13.25C17.3096 13.25 16.75 12.6904 16.75 12C16.75 11.5858 17.0858 11.25 17.5 11.25C17.5001 11.25 17.5002 11.25 17.5003 11.25C18.3285 11.2505 19.0909 11.5835 19.6517 12.1358C20.2193 12.6946 20.5866 13.4698 20.6594 14.3112C20.6639 14.3604 20.6689 14.4095 20.6744 14.4585C20.7233 14.9015 20.75 15.4336 20.75 16V19C20.75 20.5188 19.5188 21.75 18 21.75H6C4.48122 21.75 3.25 20.5188 3.25 19V14.5C3.25 12.9812 4.48122 11.75 6 11.75C6.16595 11.75 6.33397 11.75 6.5 11.25Z" fill="currentColor"/>
</svg>
